<svg xmlns="http://www.w3.org/2000/svg" width="32" height="32" viewBox="0 0 32 32">
  <defs>
    <radialGradient id="bg" cx="50%" cy="45%" r="65%">
      <stop offset="0%" stop-color="#141430"/>
      <stop offset="100%" stop-color="#0a0a1a"/>
    </radialGradient>
    <radialGradient id="glow" cx="50%" cy="50%" r="50%">
      <stop offset="0%" stop-color="#00ff88" stop-opacity="0.3"/>
      <stop offset="100%" stop-color="#00ff88" stop-opacity="0"/>
    </radialGradient>
  </defs>

  <!-- Background -->
  <rect width="32" height="32" rx="5.76" fill="url(#bg)"/>

  <!-- Subtle glow -->
  <circle cx="16" cy="16" r="9.6" fill="url(#glow)"/>

  <!-- Shield shape -->
  <path d="M 16 3.904
           L 25.407999999999998 7.936
           Q 26.214399999999998 17.344 16 28.095999999999997
           Q 5.7856 17.344 6.5920000000000005 7.936
           Z"
        fill="none" stroke="#00ff88" stroke-width="0.64"
        stroke-linejoin="round" opacity="0.9"/>

  <!-- Inner shield fill -->
  <path d="M 16 5.248
           L 24.601599999999998 8.7424
           Q 25.139199999999995 16.8064 16 26.752
           Q 6.860799999999999 16.8064 7.3984000000000005 8.7424
           Z"
        fill="#00ff8815"/>

  <!-- Cross / plus in center -->
  <rect x="14.72" y="11.2" width="2.56" height="9.6"
        rx="0.48" fill="#00ff88" opacity="0.95"/>
  <rect x="11.2" y="14.72" width="9.6" height="2.56"
        rx="0.48" fill="#00ff88" opacity="0.95"/>

  <!-- Small pathogen circles -->
  <circle cx="8.96" cy="10.24" r="1.12"
          fill="#ff4466" opacity="0.8"/>
  <circle cx="23.68" cy="12.16" r="0.8"
          fill="#ff6644" opacity="0.7"/>
  <circle cx="21.759999999999998" cy="23.04" r="0.96"
          fill="#ff4466" opacity="0.75"/>
  <circle cx="9.6" cy="22.4" r="0.64"
          fill="#ff6644" opacity="0.65"/>

  <!-- "BD" text -->
  <text x="16" y="26.240000000000002" text-anchor="middle"
        font-family="Arial, Helvetica, sans-serif" font-weight="900"
        font-size="3.2" fill="#00ff88" opacity="0.6"
        letter-spacing="0.48">BIO DEF</text>
</svg>